<svg viewBox="0 0 600 400" xmlns="http://www.w3.org/2000/svg" xmlns:xlink="http://www.w3.org/1999/xlink"><radialGradient id="a" cx="387.93" cy="102.7" gradientUnits="userSpaceOnUse" r="67.97"><stop offset="0" stop-color="#f79c7d"/><stop offset="1" stop-color="#ef3e5a"/></radialGradient><linearGradient id="b"><stop offset="0" stop-color="#d9b042"/><stop offset="1" stop-color="#96933c"/></linearGradient><radialGradient id="c" cx="353.2" cy="82.87" fx="353.2" fy="82.87" gradientUnits="userSpaceOnUse" r="70.54" xlink:href="#b"/><radialGradient id="d" cx="346.67" cy="82.71" fx="346.67" fy="82.71" r="43.54" xlink:href="#c"/><radialGradient id="e" cx="336.4" cy="101.43" fx="336.4" fy="101.43" r="40.16" xlink:href="#c"/><linearGradient id="f" gradientUnits="userSpaceOnUse" x1="230.21" x2="230.21" xlink:href="#b" y1="260.85" y2="232.82"/><linearGradient id="g" gradientTransform="matrix(.99146763 -.13035315 .13035315 .99146763 -31.33 8.89)" x1="233.7" x2="235.76" xlink:href="#f" y1="274.93" y2="259.25"/><radialGradient id="h" cx="286" cy="238.61" fx="286" fy="238.61" gradientUnits="userSpaceOnUse" r="123.69"><stop offset="0" stop-color="#c49941"/><stop offset="1" stop-color="#5d6430"/></radialGradient><linearGradient id="i" gradientUnits="userSpaceOnUse" x1="287.74" x2="366.89" y1="245.28" y2="245.28"><stop offset="0" stop-color="#fbef58"/><stop offset="1" stop-color="#bdab3f"/></linearGradient><radialGradient id="j" cx="443.58" cy="873.31" gradientTransform="matrix(1 0 0 .91 0 -680.79)" gradientUnits="userSpaceOnUse" r="102.46"><stop offset="0" stop-color="#f15948"/><stop offset="1" stop-color="#ba1e76"/></radialGradient><radialGradient id="k" cx="419.89" cy="82.05" fx="419.89" fy="82.05" r="101.49" xlink:href="#h"/><linearGradient id="l" gradientUnits="userSpaceOnUse" x1="225.49" x2="225.49" y1="249.03" y2="218.66"><stop offset="0" stop-color="#f4772b"/><stop offset="1" stop-color="#602368"/></linearGradient><linearGradient id="m" gradientUnits="userSpaceOnUse" x1="241.99" x2="316.24" y1="225.16" y2="225.16"><stop offset="0" stop-color="#b6bc3c"/><stop offset="1" stop-color="#d9b042"/></linearGradient><linearGradient id="n" gradientUnits="userSpaceOnUse" x1="337.15" x2="368.22" y1="219.66" y2="219.66"><stop offset="0" stop-color="#d9b042"/><stop offset="1" stop-color="#b6bc3c"/></linearGradient><linearGradient id="o" gradientUnits="userSpaceOnUse" x1="252.5" x2="278.52" y1="232.82" y2="232.82"><stop offset="0" stop-color="#978330"/><stop offset="1" stop-color="#5d6430"/></linearGradient><linearGradient id="p" gradientUnits="userSpaceOnUse" x1="335.95" x2="335.95" y1="350.73" y2="240.65"><stop offset="0" stop-color="#d9b042"/><stop offset="1" stop-color="#788034"/></linearGradient><linearGradient id="q" x1="324.47" x2="324.47" xlink:href="#m" y1="294.48" y2="285.5"/><linearGradient id="r" x1="311.78" x2="311.78" xlink:href="#m" y1="280.15" y2="280.13"/><linearGradient id="s" x1="315.35" x2="315.35" xlink:href="#m" y1="292.28" y2="282.53"/><linearGradient id="t" x1="343.62" x2="343.62" xlink:href="#m" y1="288.26" y2="282.91"/><linearGradient id="u" x1="357.76" x2="357.76" xlink:href="#m" y1="279.79" y2="274.71"/><linearGradient id="v" gradientUnits="userSpaceOnUse" x1="13.51" x2="193.5" y1="304.57" y2="304.57"><stop offset="0" stop-color="#ae6769"/><stop offset="1" stop-color="#fff"/></linearGradient><linearGradient id="w" x1="283.1" x2="283.1" xlink:href="#m" y1="237.68" y2="237.36"/><linearGradient id="x" x1="287.27" x2="287.27" xlink:href="#m" y1="249.92" y2="236.47"/><linearGradient id="y" x1="281.45" x2="281.45" xlink:href="#m" y1="242.03" y2="231.78"/><radialGradient id="z" cx="425.58" cy="88.2" fx="425.58" fy="88.2" r="47.7" xlink:href="#h"/><radialGradient id="A" cx="411.2" cy="103.54" fx="411.2" fy="103.54" r="40.81" xlink:href="#h"/><radialGradient id="B" cx="388.89" cy="111.87" fx="388.89" fy="111.87" r="35.82" xlink:href="#h"/><linearGradient id="C" gradientUnits="userSpaceOnUse" x1="45.55" x2="241.97" y1="291.78" y2="291.78"><stop offset="0" stop-color="#f2673f"/><stop offset=".2" stop-color="#f79335"/><stop offset="1" stop-color="#febb12"/></linearGradient><linearGradient id="D" gradientUnits="userSpaceOnUse" x1="317.36" x2="329" y1="226.6" y2="226.6"><stop offset="0" stop-color="#a4956b"/><stop offset="1" stop-color="#fff"/></linearGradient><linearGradient id="E" x1="349.92" x2="380.2" xlink:href="#D" y1="249.32" y2="249.32"/><linearGradient id="F" x1="190.11" x2="251.23" xlink:href="#m" y1="231.38" y2="231.38"/><linearGradient id="G" x1="215.41" x2="249.97" xlink:href="#D" y1="226.29" y2="226.29"/><linearGradient id="H" x1="353.88" x2="596.94" xlink:href="#D" y1="98.26" y2="98.26"/><linearGradient id="I" x1="190.11" x2="201.48" xlink:href="#D" y1="233.77" y2="233.77"/><linearGradient id="J" gradientUnits="userSpaceOnUse" x1="222.17" x2="248.73" y1="193.33" y2="193.33"><stop offset="0" stop-color="#a4956b"/><stop offset="1" stop-color="#faf17a"/></linearGradient><linearGradient id="K" x1="191.56" x2="225.2" xlink:href="#J" y1="210.33" y2="210.33"/><linearGradient id="L" x1="273.44" x2="289.88" xlink:href="#J" y1="169.43" y2="169.43"/><linearGradient id="M" x1="254.76" x2="254.76" xlink:href="#J" y1="189.18" y2="158.92"/><linearGradient id="N" x1="231.05" x2="231.05" xlink:href="#J" y1="193.25" y2="164.92"/><linearGradient id="O" gradientUnits="userSpaceOnUse" x1="239.07" x2="239.07" y1="241.42" y2="216.34"><stop offset="0" stop-color="#fff"/><stop offset="1" stop-color="#a4956b"/></linearGradient><linearGradient id="P" x1="255.04" x2="273.67" xlink:href="#D" y1="230.66" y2="230.66"/><linearGradient id="Q" x1="255.36" x2="278.47" xlink:href="#D" y1="216.06" y2="216.06"/><linearGradient id="R" x1="252.77" x2="267.37" xlink:href="#D" y1="244.83" y2="244.83"/><linearGradient id="S" x1="357.66" x2="357.66" xlink:href="#J" y1="154.72" y2="44.25"/><linearGradient id="T" x1="396.11" x2="396.11" xlink:href="#J" y1="40.23" y2="16.59"/><linearGradient id="U" x1="311.76" x2="311.76" xlink:href="#J" y1="53.06" y2="27.15"/><linearGradient id="V" gradientUnits="userSpaceOnUse" x1="268.58" x2="356.41" y1="182.2" y2="182.2"><stop offset="0" stop-color="#faf17a"/><stop offset="1" stop-color="#010101"/></linearGradient><linearGradient id="W" x1="318.11" x2="318.11" xlink:href="#J" y1="220.44" y2="214"/><linearGradient id="X" x1="355.9" x2="370.32" xlink:href="#J" y1="225.78" y2="225.78"/><linearGradient id="Y" gradientUnits="userSpaceOnUse" x1="407.44" x2="486.26" y1="94.2" y2="158.11"><stop offset="0" stop-color="#fff"/><stop offset="1" stop-color="#a3246b"/></linearGradient><linearGradient id="Z" x1="442.72" x2="521.54" xlink:href="#Y" y1="50.68" y2="114.6"/><linearGradient id="aa" x1="476.01" x2="554.83" xlink:href="#Y" y1="9.63" y2="73.55"/><linearGradient id="ab" x1="364.13" x2="421.17" xlink:href="#Y" y1="126.61" y2="172.87"/><linearGradient id="ac" gradientTransform="matrix(.96695701 -.2549395 .2549395 .96695701 -45.15 57.8)" gradientUnits="userSpaceOnUse" x1="356.35" x2="395.61" y1="243.83" y2="243.83"><stop offset="0" stop-color="#010101"/><stop offset="1" stop-color="#faf17a"/></linearGradient><linearGradient id="ad" gradientUnits="userSpaceOnUse" x1="52.7" x2="240.04" y1="278.3" y2="278.3"><stop offset="0" stop-color="#f79335"/><stop offset="1" stop-color="#ffe300"/></linearGradient><linearGradient id="ae" x1="211.5" x2="221.26" xlink:href="#J" y1="207.35" y2="207.35"/><linearGradient id="af" x1="191.88" x2="204.7" xlink:href="#J" y1="210.6" y2="210.6"/><linearGradient id="ag" x1="226.12" x2="244.31" xlink:href="#J"/><path d="m380.27 61.65c-21.89-6.18-46.82-10.46-73.63-10.24 0 0 20.25 57.63 14.42 97.91 0 0 17.45-1.21 32.84 1.14 4.98.75 9.74 1.88 13.63 3.54 0 0 16.92-17.63 35.36-22.72 0 0-1.26-15.3 22.49-11.71 0 0 11.62-17.37 43.83-16.24 0 0-35.35-26.55-88.94-41.68zm-55.69 34.98c-1.77-.37-1.62-8.59 0-7.32 2.9 2.27 1.77 7.7 0 7.32zm15.5 35.5c-8.9-1.22-11.71-10.74-11.71-10.74l7.07 5.31s-4.55-5.31-5.94-9.86c-1.39-4.54-1.43-20.14 0-19.2 15.23 10 10.58 34.49 10.58 34.49z" fill="url(#a)"/><path d="m318.39 151.01s9.09-55.32-19.71-97.96c0 0 7.96-13.39 14.91-19.71s18.77-8.34 19.2-7.77c.7.93-11.62 10.04-19.45 23.31 0 0 71.75-2.9 155.87 54.45 0 0-63.54-48.38-157.52-51.67 0 0 11.14 44.18 12.66 97.49z" fill="url(#c)"/><path d="m311.69 51.67s70.23 23.14 109.39 67.91c0 0-48-44.66-109.39-67.91z" fill="url(#d)"/><path d="m312.19 53.71s33.99 24.89 75.74 104.39c0 0-39.37-71.52-75.74-104.39z" fill="url(#e)"/><path d="m225.49 233.84s-2.22 17.66 5.61 27c0 0 .13-8.74 4.11-28.02z" fill="url(#f)"/><path d="m234.75 235.72s-3.03 8.19 2.01 15.31c0 0 1.09-8.39 1.8-15.81z" fill="url(#g)"/><path d="m490.05 353.56s-32.59 10.57-82.61-10.63c0 0 2.94.21 11.46-3.3 8.53-3.5 13.84-12.41 13.84-12.41s-20.09.38-32.4 4.27l-.76-1.61s-11.94 1.7-18.85 4.83c0 0-3.04 2.37-4.17 6.91 0 0-15.07 2.37-20.56 3.51-5.5 1.14-14.02 3.41-14.02 3.41s-1.14 3.13 2.46 6.82c0 0-16.48 3.7-34.1.1 0 0-22.18 1.68-39.21-4.73-1.65-.62-3.25-1.32-4.78-2.1 0 0 3.91-26.14 39.53-42.25 29.7-13.42 67.59-19.76 85.71-44.44 3.62-4.92 6.45-10.56 8.27-17.14-.41.16-9.5 3.72-16.66 8.78l1.41 2.69 1.94 3.69-.06.04s-.05.03-.08.05c-.88.57-5.92 3.76-13.19 7.43-8.02 4.04-13.39 5.24-13.39 5.24s.06.73-.22 1.99h-.01c-.28 1.24-.91 3.01-2.3 5.08l-1.36-1.67s-2.8-3.44-2.8-3.44l-7.62 2.05-.09.03-1.64 4.93s.76.53 1.68 1.22c1.41 1.06 3.23 2.51 3.31 3.01.09.63-4.77 2.77-10.3 2.26-1.64-.14-3.35-.52-4.99-1.25l.95-9.66s-3.73 5.17-4.8 8.02c-.21.57-.46 1.27-.72 2.02v.04c-1.03 2.95-2.23 6.69-2.63 7.09-.4.41-4.54-2.74-6.01-7.91l-.24-1.03s-.01-.04-.01-.05v-.02c-.22-1.03-.31-2.14-.24-3.3 0 0-.51 1.86-1.07 4.29-.4 1.75-.82 3.79-1.08 5.62-.17 1.18-4.61-2.11-5.65-9.51v-.02c-.11-.74-.18-1.52-.2-2.34v-.02s-.01-.01-.01-.02c0-.18 0-.37 0-.56 0 0 8.43-7.1 11.37-10.14 2.93-3.03 3.69-4.45 3.69-4.45s7.39.57 14.49.29c7.11-.29 26.53-5.97 26.53-5.97l-.95-.67s-.02 0-.03 0c-.7.17-15.61 3.78-39.28-.48 0 0-.23.61-.89 1.54-1.22 1.73-3.92 4.57-9.33 6.6.1-.28 1.73-4.72 2.11-8.99.06-.74.09-1.47.06-2.18 0 0-8.58.99-13.55 2.79-1.15.42-2.42 1.12-3.7 1.95-4.25 2.76-8.61 6.97-9.19 7.01-.75.04.81-9.19.81-9.19v.03c-.16.27-1.34 2.44-1.56 2.62-.07.05-.17-.07-.29-.28-.29-.52-.66-1.57-.66-1.57l-.03.02c-.34.2-3.08 1.83-3.57 1.83-.32 0 .99-4.9 2.61-9.04 1.04-2.64 2.21-4.97 3.17-5.5 2.46-1.38 12.88 1.47 16.91 1.56 4.02.1 6.91-2.65 7.91-2.89.99-.24 20.52 9.11 34.74 7.91 0 0-14.53-6.44-19.02-14.65 0 0-2.02 2.78-2.77 3.09-.76.32-13.01-1.89-23.56-7.76l-7.45 5.87-4.49-.25s-1.68 1.62-3.79 3.64l-.38.36c-3.35 3.19-7.54 7.13-7.96 7.24-.69.19-2.08-6.57-.5-12.57s-.02.02-.04.05c-.01 0-.03.02-.04.04-.65.62-4.56 4.35-4.96 4.58-.45.26-.95-8.27-.38-10.23 0 0 7.64-.82 10.99-2.4 3.34-1.58 3.66-3.41 4.42-3.53.76-.13 18.25 3.66 25.32 1.2l-2.27-6s-19.93-.6-42.47 5.27v.03c.08.16.36.84.63 1.92v.03c.66 2.54 1.29 7.26-.73 12.7l-6.05-8.79c.18.54 3.2 9.52 2.93 15.74-.24 5.21-1.47 11.56-2.33 13.97-.2.55-.38.9-.52.97-.75.38-2.93-18.48-13.07-30.7 0 0-7.99 1.23-23.4 10.96 0 0-8.72 6.19-14.02 7.45l-1.77 6.7-6.44-8.34s5.84-5.4 9.16-9.57c3.31-4.17 6.53-14.59 6.53-14.59s-7.01 5.12-9.28 8.06c0 0-10.61 3.31-11.94 4.07-1.32.76-1.99 2.27-1.99 2.27s-8.52-3.69-11.37-10.89l1.33-11.56s-1.33-3.98-1.33-7.86 2.94-5.78 2.94-5.78 6.35 5.21 6.73 5.21 11.46-.76 15.35-2.09c3.88-1.32 7.01-10.55 9-11.76 1.98-1.21 3.69-.65 3.69-.65s-.47-9.37.66-14.87c1.14-5.49 5.02-14.49 5.97-14.59.95-.09-.28 21.13 1.8 27.95 0 0 9.19-16.11 16.01-22.26 6.82-6.16 21.98-12.79 22.83-12.23.77.51-12.12 11.79-18.31 20-.73.96-1.36 1.88-1.87 2.74-4.25 7.16-5.93 10.3-6.27 10.96-.02.05-.04.08-.05.1.01-.01.03-.03.04-.05.56-.62 4.74-5.26 8.27-6.84 3.79-1.71 10.14-2.65 10.8-2.08.67.56-8.05 7.73-11.65 11.82 0 0 9.38-1.02 16.86-10.59 0 0 8.22-18.54 16.93-27.76 0 0 1.39 2.15 0 14.15l6.32-5.44s7.83-10.13 19.58-18.02l.56 3.06 7.77-2.47s14.78-8.52 28.61-8.52l-6.44 13.45s13.45 1.77 39.85 21.6c0 0 23.05 11.93 32.14 23.86-.26-.19-4.53-3.24-13.25-3.32 0 0 18.25 30.87 18.63 47.54 0 0-1.64-6.94-11.75-9.22l-.5 9.22s5.05 12.76 2.78 28.93c0 0-.89-1.89-5.69-6.19 0 0-2.4 11.24-6.95 20.21 0 0-8.33 17.42-20.58 23.74.19-.31 3.18-5.36 4.04-15.15 0 0-26.21 5.43-40.42 10.55-14.21 5.11-22.74 10.8-22.74 10.8l-1.33-2.47-9.91 3.73s-9.73 9.6-10.99 13.77l-3.67-5.31-2.77 2.15s-2.78 7.08-2.66 16.3c0 0-1.01-3.79-6.44-3.92 0 0-1.39 6.95-.38 8.84 1.01 1.9 21.1 8.34 53.56-1.39 32.46-9.72 69.6-30.19 99.92-21.47 0 0-5.06 6.19-5.18 9.6-.13 3.41 22.1 19.2 58.1 18.82z" fill="url(#h)"/><path d="m231.14 209.37s7.34-11.59 16.67-13.83l-.9 1.28s3.46 1.64 5.07 4.97c0 0-5.35 4.55-11.08 6.17-5.73 1.61-9.76 1.42-9.76 1.42z" fill="#757d82" opacity=".6"/><path d="m366.89 258.63s-.02 0-.03 0c-.7.17-15.61 3.78-39.28-.48 0 0-.23.61-.89 1.54-1.22 1.73-3.92 4.57-9.33 6.6.1-.28 1.73-4.72 2.11-8.99.06-.74.09-1.47.06-2.18 0 0-8.58.99-13.55 2.79-1.15.42-2.42 1.12-3.7 1.95-3.62 2.35-7.33 5.76-8.7 6.74-.23.17-.4.26-.48.27-.75.04.81-9.19.81-9.19v.03c-.16.27-1.34 2.44-1.56 2.62-.07.05-.17-.07-.29-.28-.29-.52-.66-1.57-.66-1.57l-.03.02c-.34.2-3.08 1.83-3.57 1.83-.32 0 .99-4.9 2.61-9.04 1.04-2.64 2.21-4.97 3.17-5.5 2.46-1.38 12.88 1.47 16.91 1.56 4.02.1 6.91-2.65 7.91-2.89.99-.24 20.52 9.11 34.74 7.91 0 0-14.53-6.44-19.02-14.65 2.17-4.14 3.04-14.05 3.04-14.05l11.65 2.36-3.22 2.28c6.82 23.02 21.31 30.31 21.31 30.31z" fill="url(#i)"/><path d="m596.9 69.08c-1.98-1.24-85.25-52.4-210.68-20.95 0 0-2.43 5.2-5.95 13.52-8.88 20.96-24.74 61.7-26.37 88.81-.17 2.86-.19 5.56-.02 8.07h.02c.66.22 21.95 7.36 37.63 21.59 0 0 5.5-3.53 15.45-7.42 0 0 1.26-14.11 7.02-16.38 5.76-2.28 7 11.76 7 11.76 1.64-.45 3.34-.89 5.1-1.3l-5.19-34.35-.68-4.53c8.53 9.66 14.97 27.28 14.97 27.28l.85-4.74c2.84 4.17 4.98 13.6 4.98 13.6 6.41-.84 13.34-1.35 20.73-1.33 0 0 1.08-3.78 4.13-8.71 0 0-2.95-9.24 0-11.7 2.94-2.47 9.02.99 9.02.99l-.04.05c6.72-5.92 16.6-11.13 30.84-12.06-.03-.05-.06-.09-.09-.14-1.29-2.17-16.49-28.63.09-50.42 1.29-1.7 2.9-3.21 4.77-4.55 22.86-16.38 84.83-7.31 86.43-7.08 0-.01-.01-.01-.01-.01zm-153.93 82.98s-14.97-17.91-15.54-33.35c0 0 17.05 15.44 15.54 33.35zm29.46-15.83c-3.41 1.05-3.67-6.55-2.68-6.91 2.33-.85 6.09 5.87 2.68 6.91zm-6.76-69.28s15.29 1.69 25.27 11.87c0 0-17.94-.75-25.27-11.87zm20.21 0c4.05-.76 5.06 2.02 5.06 2.02-3.54 1.14-5.06-2.02-5.06-2.02z" fill="url(#j)"/><path d="m336.69 154.68s5.7 9.41 17.19 3.85c0 0 10.61-74.27 35.37-106.61 0 0 79.58-37.89 207.69 17.18 0 0-99.69-53.94-205.04-24.38 0 0 7.39-11.08 9.57-14.02s12.03-13.93 11.65-14.49c-.38-.57-13.45 5.49-21.98 11.84s-12.88 16.48-13.07 17.81-3.41 21.22-14.21 52.86-27.17 55.96-27.17 55.96z" fill="url(#k)"/><path d="m209 248.97s6.42.71 15.09-3.03c8.68-3.74 18.38-15.28 17.87-27.28 0 0-11.12 3.03-15.54 4.8 0 0-5.81 19.83-17.43 25.52z" fill="url(#l)"/><path d="m235.21 205.14s5.75 2.21 6.19-5.37c0 0-3.35 2.53-6.19 5.37z" fill="#fcb316"/><path d="m241.99 237.04s11.48-5.88 25.37-14.09 30.06-13.01 48-6.95l.88 5.06s-26.27 1.26-43.45 5.55-30.8 10.43-30.8 10.43z" fill="url(#m)"/><path d="m266.55 205.14s15.85 8.74 22.9 18.28l-15.68 2.91-17.53-13.06z" fill="#757d82" opacity=".6"/><path d="m340.08 213.27s15.35 7.28 28.14 8.41c0 0-8.34.19-19.42 4.36l-11.65-2.37v-5.59s2.84-4.04 2.93-4.81z" fill="url(#n)"/><path d="m278.47 220.99c-.72.29-5.59-2.71-8.68-4.42-3-1.65-8.37-3.04-8.7-3.12 10.5 5.31 12.68 12.88 12.68 12.88v.03s.63 1.92.63 1.92v.03c.66 2.54 1.29 7.26-.73 12.7l-6.05-8.79c.18.54 3.2 9.52 2.93 15.74-.24 5.21-1.47 11.56-2.33 13.97-.2.55-.38.9-.52.97-.09.04-.19-.17-.32-.59s0-.03 0-.04c-1.04-3.35-3.8-19.29-12.74-30.07-.97-1.86-1.55-3.45-1.86-4.8v-.02c-1.25-5.61 2.27-7.08 2.27-7.08-2.97-5.62.32-8.59.32-8.59-4.23-3.48-1.77-8.97-1.77-8.97s8.46-.06 12.96 2.4 12.65 15.57 11.92 15.85z" fill="url(#o)"/><path d="m405.55 240.65s-2.09 27.08-27.1 41.86-104.36 26.35-107.32 68.22c-1.65-.62-3.25-1.32-4.78-2.1 0 0 3.91-26.14 39.53-42.25 35.62-16.1 83.02-22 93.98-61.58z" fill="url(#p)"/><g fill="#44441a"><path d="m411.71 235.51 11.9 6.51s-1.93-8.43-11.75-9.22l-7.47-1.45 7.42 2.37z"/><path d="m407.87 267.18 6.27 3.77s-3.09-4.93-6.27-7.11l-3.5-2.26 3.5 3.58v2.01z"/><path d="m380.91 294.43v14.28s3.93-5.14 4.05-15.15l-.63-6.25-.48 6.49-2.93.63z"/><path d="m319.45 312.82 2.35 2.09-.57-3.13-.6-2.11v2.47z"/><path d="m294.28 325.89 5.29 4.05s-.58-3.42-3.67-5.31l-2.22-2.1 1.52 2.64-.92.71z"/><path d="m283.88 339.99 6.59 3.09s-1.58-4.98-6.44-4.09l-3.3-.19 3.23.73-.09.47z"/><path d="m342.73 348.34 1.72 7.02s-4.43-2.75-2.46-6.82z"/><path d="m376.56 341.62 4.17-6.91s-4.29 1.85-4.17 6.91z"/><path d="m407.87 199.63 10.36-1.83s-4.6-4.16-19.13-4.41l5.88 1.09z"/></g><path d="m328.91 287.31v.04c-1.03 2.95-2.23 6.69-2.63 7.09-.4.41-4.54-2.74-6.01-7.91l-.24-1.03c.22.53 1.95 4.15 8.88 1.81z" fill="url(#q)"/><path d="m311.77 280.13h.01v.02s-.01-.01-.01-.02z" fill="url(#r)"/><path d="m318.71 286.42c-.4 1.75-.82 3.79-1.08 5.62-.17 1.18-4.61-2.11-5.65-9.51.52 1.88 2.09 4.13 6.73 3.89z" fill="url(#s)"/><path d="m348.77 285.92c.09.63-4.77 2.77-10.3 2.26 0 0 4.98-1.35 6.99-5.26 1.41 1.05 3.23 2.5 3.31 3z" fill="url(#t)"/><path d="m359.59 274.71c-.28 1.24-.91 3.01-2.3 5.08l-1.36-1.67s3.66-3.41 3.66-3.41z" fill="url(#u)"/><path d="m143.76 264.01s-16.74 6.46-33.41-17.17-75.41-30.32-91.71 17.17c-16.29 47.49 11.52 45.72 10.88 65.93s-23.38 40.29-2.92 49.01 38.47-21.09 65.85-21.92c27.37-.82 87.63-11.43 91.8-42.12 4.17-30.7-6.45-33.85-5.31-40.87 1.15-7.02 14.57-19.42 14.57-19.42z" fill="url(#v)" opacity=".3"/><path d="m292.05 252.38-.66 6.11-.03.02c-.34.2-3.08 1.83-3.57 1.83-.32 0 .99-4.9 2.61-9.04l1.59 1.04z" fill="#dbcc41"/><path d="m295.75 253.28-1.2 2.87v.02s-.65 1.52-.65 1.52v.03c-.16.27-1.34 2.44-1.56 2.62-.07.05-.17-.07-.29-.28-.29-.52-.66-1.57-.66-1.57 0-3.24.33-5.13.6-6.15.21-.76.39-1.04.39-1.04z" fill="#dbcc41"/><path d="m302.28 259.87c-4.25 2.76-8.61 6.97-9.19 7.01-.75.04.81-9.19.81-9.19v.03c-.16.27-1.34 2.44-1.56 2.62-.07.05-.17-.07-.29-.28l2.49-3.89v-.02c5.67-.73 7.74 3.72 7.74 3.72z" fill="#dbcc41"/><path d="m326.69 259.7c-1.22 1.73-3.92 4.57-9.33 6.6.1-.28 1.73-4.72 2.11-8.99.28-.07 5.76-1.42 7.22 2.39z" fill="#dbcc41"/><path d="m283.2 237.36-.21.32c.05-.1.09-.19.13-.24 0-.02.03-.03.04-.04.02-.03.03-.04.04-.04z" fill="url(#w)"/><path d="m292.05 242.32-.38.36c-3.35 3.19-7.54 7.13-7.96 7.24-.69.19-2.08-6.57-.5-12.57l1.64-.88s6.94.91 7.2 5.85z" fill="url(#x)"/><path d="m285.37 236.04-2.16 1.31s-.21.33-.21.33c.05-.1.09-.19.13-.24-.65.62-4.56 4.35-4.96 4.58-.45.26-.95-8.27-.38-10.23 0 0 4.89-.35 7.59 4.25z" fill="url(#y)"/><path d="m389.25 51.92s64.66 19.52 116.46 79.36c0 0-43.95-53.85-117.78-77.57l1.33-1.79z" fill="url(#z)"/><path d="m461.76 162.71s-28.17-67.79-73.84-109l-.49.68s38.45 34.18 74.32 108.31z" fill="url(#A)"/><path d="m391.53 180.12s2.43-79.29-4.09-125.72c0 0 4.9 56.82 4.09 125.72z" fill="url(#B)"/><path d="m226.43 223.46s-2.36 7.99-12.78 14.42c-10.42 6.44-49.11 26.8-78.48 28.42s-35.24-7.1-35.24-7.1 1.14-7.19-7.77-9.28-19.52 9.6-14.59 24.79c0 0 1.07-6.29 6-6.41 4.93-.13 5.31 4.42 5.31 4.42s-12.06.06-30.06 14.68 1.33 36.54 2.65 42.54-10.28 3.73-10.28 3.73-1.66 8.34 6.49 19.33-12.13 11.37-12.13 11.37 14.53 3.47 26.65-7.33c0 0-7.71-7.01-6.19-22.8s13.64-17.56 18.82-12.88c5.18 4.67 7.83 10.48 13.39 11.37 5.56.88 8.72-1.52 8.72-1.52s0 7.58-10.48 8.97c0 0 10.99 4.67 30.44-6.44 0 0-.44-27.92 20.4-23.94 0 0-4.36 2.37-3.03 12.74l3.22 3.7s-.76-8.68 12.88-12.85c0 0-23.12-8.5-16.86-17.7 6.25-9.2 53.28-39.2 74.66-56.29s23.81-20.74 23.81-20.74-12.82 3.41-15.54 4.8z" fill="url(#C)"/><g fill="#44441a" opacity=".5"><path d="m258.54 175.56c-2.84-4.77-6.26-5.37-6.29-5.38l.04-.25c.14.02 3.57.61 6.47 5.49l-.21.13z"/><path d="m234.91 179.06c-3.69-2.65-6.23-.12-6.34-.01l-.18-.17s2.79-2.79 6.66-.01l-.15.2z"/><path d="m261.28 189.2c-.87-4.85-4.22-4.36-4.36-4.33l-.04-.25s3.74-.57 4.65 4.54z"/><path d="m268.7 216.02-.23-.1c2.79-6.31.05-9.1.03-9.13l.17-.18c.12.12 2.9 2.93.03 9.41z"/><path d="m267.72 232.3-.2-.15c4.47-6.02 4.18-9.56 4.18-9.59l.25-.02c.01.15.3 3.66-4.23 9.77z"/><path d="m262.86 246.95-.09-.23c7.13-2.82 6.84-6.02 6.84-6.05l.25-.03c.02.14.34 3.42-6.99 6.32z"/><path d="m293.52 318.58c-2.52-1.21-6.2-.85-6.24-.85l-.03-.25s3.78-.37 6.37.87l-.11.22z"/><path d="m310.43 309.29c-4.82-1.18-8.12-1.06-8.15-1.06v-.25s3.35-.11 8.21 1.07z"/><path d="m317.4 301.74-.08-.24c.07-.02 6.76-2.25 13.01-.62l-.06.24c-6.18-1.62-12.8.59-12.86.61z"/><path d="m342.91 296.6c-3.28-1.46-9.23-.79-9.29-.79l-.03-.25c.06 0 6.08-.68 9.42.81z"/><path d="m287.21 323.22c-2.01-1-5.45-.56-5.48-.56l-.03-.25c.14-.02 3.55-.45 5.63.58l-.11.22z"/><path d="m279.34 331.06c-2.6-.39-4.76 0-4.78 0l-.04-.25s2.22-.4 4.87 0l-.04.25z"/><path d="m272.29 344.09c-2.29-.73-4.6 0-4.62 0l-.08-.24c.1-.03 2.41-.75 4.77 0l-.08.24z"/><path d="m357.71 291.89c-3.88-1.63-12.16-.4-12.24-.39l-.04-.25c.34-.05 8.43-1.25 12.37.41l-.1.23z"/><path d="m359.78 285.62-.07-.24c.09-.03 8.92-2.49 15.56-1.26l-.05.25c-6.58-1.22-15.35 1.23-15.44 1.25z"/><path d="m377.04 276-.12-.22c.06-.03 5.94-3.35 12.78-2.17l-.04.25c-6.74-1.16-12.55 2.11-12.61 2.14z"/><path d="m386.56 268.03-.12-.22c.06-.03 6.28-3.28 10.5-3.4v.25c-4.16.12-10.32 3.34-10.38 3.37z"/><path d="m396.16 254.72-.14-.21s2.77-1.92 6.93-2.8l.05.24c-4.11.86-6.81 2.74-6.84 2.76z"/><path d="m279.17 225.16-.1-.23c.07-.03 6.66-3.1 8.56-10.41l.24.06c-1.93 7.43-8.63 10.54-8.7 10.58z"/><path d="m290.57 223.53-.12-.22c.07-.04 7-3.73 8.58-10.06l.24.06c-1.6 6.44-8.63 10.19-8.71 10.22z"/><path d="m303.29 222.12-.13-.21c.05-.03 5.3-3.44 6.97-7.4l.23.1c-1.7 4.03-7.01 7.48-7.07 7.52z"/><path d="m338.32 224.02-.08-.24s4.81-1.77 8.12-7.88l.22.12c-3.36 6.19-8.21 7.97-8.26 7.99z"/><path d="m346.47 225.7v-.25s4.73-.07 9.36-6.32l.2.15c-4.71 6.35-9.51 6.42-9.56 6.42z"/><path d="m357.78 223.54-.03-.25s2.97-.39 4.99-2.48l.18.17c-2.08 2.16-5.11 2.55-5.14 2.56z"/><path d="m273.14 183.63-.12-.22 14.62-8 2.09-5.18.23.1-2.12 5.25-.04.03z"/><path d="m294.86 166.1-.05-.24c.17-.04 17.41-3.78 21.31-7.81.06-.53.69-6.17-.5-11.2l.24-.06c1.26 5.3.51 11.27.5 11.33v.04s-.03.03-.03.03c-3.9 4.1-20.75 7.76-21.47 7.91z"/><path d="m330.51 139.36h.25v18.91h-.25z" transform="matrix(.05163877 -.99866583 .99866583 .05163877 164.97 471.33)"/><path d="m261.42 193.01-.02-.25c16.38-1.36 19.86-13.71 19.9-13.84l.24.06c-.03.13-3.56 12.64-20.12 14.02z"/><path d="m282.64 216.05-.2-.15s2.57-3.52 3.33-9.11c.71-5.16 0-13.23-7.36-22.35l.19-.16c7.42 9.2 8.13 17.34 7.41 22.56-.78 5.65-3.35 9.18-3.38 9.21z"/><path d="m281.53 188.43-.24-.07c1.39-4.63-.79-7.2-.81-7.23l.19-.16s2.29 2.71.86 7.46z"/><path d="m305.77 213.77-.23-.1c6.04-13.79 1.17-24.14-3.98-30.39-5.59-6.78-12.71-10.35-12.78-10.38l.11-.22c.07.04 7.23 3.62 12.85 10.44 5.2 6.31 10.12 16.74 4.02 30.66z"/><path d="m293.6 213.7-.06-.24s3.49-.94 6.72-4.28c2.98-3.08 6.37-8.91 5.6-19.17l.25-.02c.78 10.36-2.66 16.26-5.68 19.38-3.28 3.39-6.79 4.33-6.83 4.34z"/><path d="m308.19 196.55-.24-.08c3.6-11.14 2.1-19.39.2-24.36-2.05-5.38-4.99-8.16-5.02-8.19l.17-.18s3 2.84 5.08 8.27c1.91 5 3.43 13.32-.19 24.54z"/><path d="m309.26 174.84-.21-.13c4.93-7.72 1.17-13.11 1.14-13.16l.2-.15c.04.06 3.89 5.58-1.13 13.44z"/><path d="m308.55 201.9-.12-.22c.06-.03 5.73-3.13 7.77-10.27 1.82-6.37.28-13.88-4.59-22.33l.22-.12c4.9 8.51 6.45 16.1 4.61 22.53-2.07 7.23-7.84 10.38-7.89 10.41z"/><path d="m313.78 172.87-.16-.19c6.52-5.7 1.36-13.44 1.31-13.52l.21-.14c.05.08 5.33 8.01-1.35 13.85z"/><path d="m316.52 190.99-.1-.23c6.6-2.91 10.99-7.39 13.03-13.31 4.48-12.96-3.77-28.67-3.85-28.83l.22-.12c.08.16 8.38 15.97 3.87 29.03-2.07 5.99-6.5 10.52-13.17 13.46z"/><path d="m315.26 216.09c-.05-.06-5.39-6.17-3.66-16.87l.25.04c-1.71 10.59 3.55 16.6 3.6 16.66z"/><path d="m312.61 201.95c-.38 0-.78-.01-1.18-.04l.02-.25c3.79.26 6.7-.71 8.66-2.85 3.88-4.24 2.74-11.77 2.73-11.84l.25-.04c.01.08 1.17 7.72-2.79 12.05-1.8 1.97-4.39 2.97-7.68 2.97z"/><path d="m322.56 194.51-.04-.25c7.18-1.12 11.69-3.81 13.39-8.02 3.28-8.1-5.01-19.19-5.09-19.3l.2-.15c.08.11 8.45 11.32 5.13 19.55-1.74 4.29-6.31 7.04-13.59 8.17z"/><path d="m335.55 175.62-.03-.25c15.12-1.82 20.24-16.17 20.29-16.32l.24.08c-.05.15-5.22 14.64-20.5 16.48z"/><path d="m330.23 161.56-.17-.18s4.45-4.48 1.73-12.46l.24-.08c2.78 8.14-1.75 12.68-1.79 12.72z"/><path d="m334.27 189.29-.08-.24c10.43-3.79 15.1-10.44 17.17-15.36 2.25-5.33 2.03-9.81 2.03-9.85h.25s.22 4.57-2.05 9.95c-2.1 4.96-6.8 11.68-17.32 15.5z"/><path d="m348.56 179.08-.1-.23c10.51-4.39 16.99-14.97 17.06-15.07l.21.13c-.06.11-6.59 10.76-17.17 15.17z"/><path d="m340.17 213.36-.18-.18c.1-.1 10.03-10.45 5.62-30.99l.24-.05c4.44 20.69-5.58 31.12-5.69 31.22z"/><path d="m346.53 189.28-.12-.22c6.44-3.62 4.56-11.22 4.54-11.3l.24-.06c.02.08 1.96 7.86-4.66 11.58z"/><path d="m344.17 206.82-.11-.22c13.89-7.06 18.13-17.13 19.23-24.33 1.2-7.81-.91-14.04-.93-14.1l.24-.08c.02.06 2.15 6.34.94 14.21-1.12 7.26-5.38 17.42-19.37 24.53z"/><path d="m363.86 176.6-.16-.19c5.23-4.29 4.41-11.69 4.4-11.76l.25-.03c0 .08.85 7.61-4.49 11.98z"/><path d="m352.71 201.2-.04-.25c.07-.01 7.15-1.29 14.28-5.4 6.57-3.78 14.52-10.8 15.1-22.79h.25c-.59 12.11-8.61 19.2-15.23 23.01-7.17 4.12-14.29 5.41-14.36 5.42z"/><path d="m360.38 220.44-.18-.17c.07-.07 6.91-7.55 5.14-23.74l.25-.03c1.78 16.32-5.13 23.87-5.2 23.94z"/><path d="m365.7 205.22-.13-.21c5.78-3.47 3.42-10.51 3.4-10.58l.24-.08c.02.07 2.45 7.31-3.51 10.88z"/><path d="m376.01 188.52-.03-.25c.18-.02 18-2.37 21.47-7.71l.21.14c-3.54 5.44-20.91 7.73-21.65 7.83z"/><path d="m396.07 183.5h.25v10.74h-.25z" transform="matrix(.84113342 -.54082767 .54082767 .84113342 -39.21 244.27)"/><path d="m404.51 231.37-.25-.03c.02-.17 2.31-17.48-2.97-37.48l.24-.06c5.29 20.05 3 37.41 2.97 37.58z"/><path d="m376.73 209.64c-6.43 0-11.47-1.07-11.53-1.09l.05-.24c.07.02 7.14 1.52 15.21.95 7.43-.52 17.23-2.96 21.79-11.6l.22.12c-4.61 8.75-14.51 11.21-22 11.74-1.28.09-2.54.13-3.75.13z"/><path d="m399.78 207.34c-.34 0-.66-.06-.96-.2-.94-.45-1.41-1.65-1.4-3.56h.25c0 1.81.41 2.93 1.26 3.34 1.73.83 4.72-1.55 4.75-1.57l.16.2c-.11.09-2.26 1.8-4.06 1.8z"/><path d="m370.23 220.6c-4.86 0-8.69-1.81-8.74-1.83l.11-.22c.07.03 7.31 3.45 14.49.8 4.53-1.67 8.09-5.36 10.57-10.97l.23.1c-2.51 5.67-6.12 9.41-10.72 11.1-2.03.75-4.07 1.02-5.94 1.02z"/><path d="m383.02 214.68v-.25c9.84-.06 11.69-8.92 11.7-9.01l.25.05c-.02.09-1.9 9.15-11.95 9.21z"/><path d="m404.48 261.67-.19-.16c.06-.07 5.96-7.31 6.95-19.5l.25.02c-1 12.27-6.95 19.56-7.01 19.64z"/><path d="m384.36 287.43-.08-.24c.15-.05 15.19-4.99 23.47-22.07l.22.11c-8.34 17.19-23.47 22.15-23.62 22.2z"/><path d="m320.69 309.78-.12-.22c.11-.06 11.52-6.21 37.18-9.63l.03.25c-25.61 3.42-36.98 9.54-37.09 9.61z"/><path d="m407.43 241.91c-1.21 0-1.95-1.15-1.98-1.2l.21-.13s.75 1.17 1.92 1.07c.91-.08 2.34-.97 3.95-4.8l.23.1c-1.34 3.17-2.74 4.83-4.16 4.95-.05 0-.11 0-.16 0z"/><path d="m401.1 257.15c-.1 0-.16 0-.16 0l.02-.25s5.14.3 8.19-5.65l.22.11c-2.82 5.51-7.36 5.79-8.27 5.79z"/><path d="m397.76 274.15c-3.83 0-6.1-2.5-6.13-2.54l.19-.17c.05.05 4.65 5.13 11.88.52l.13.21c-2.3 1.47-4.34 1.97-6.07 1.97z"/><path d="m396.94 279.72s-1.21-.12-1.98-1.23c-.77-1.12-.85-2.8-.23-5l.24.07c-.59 2.12-.53 3.73.2 4.78.7 1.01 1.79 1.13 1.8 1.13l-.02.25z"/><path d="m388.22 285.08c-.79 0-1.53-.19-2.23-.56-2.48-1.34-3.46-4.56-3.5-4.7l.24-.07s.99 3.26 3.38 4.55c1.11.6 2.36.69 3.71.28l.07.24c-.58.18-1.14.26-1.68.26z"/><path d="m371.85 296.61c-7.18-1.37-6.75-7.98-6.75-8.04l.25.02c-.02.26-.41 6.45 6.55 7.78l-.05.25z"/><path d="m363.67 298.5c-.02-.1-.54-2.51 1.86-6.03l.21.14c-2.34 3.43-1.83 5.81-1.82 5.84l-.24.06z"/><path d="m383 294.01c-.78 0-1.96-.19-2.97-1.14-1.87-1.75-2.37-5.29-1.48-10.52l.25.04c-.87 5.14-.4 8.6 1.4 10.29 1.55 1.46 3.59 1 3.61.99l.06.24s-.37.08-.87.08z"/><path d="m342.5 302.74-.25-.04c.74-4.23 5.48-7.96 5.52-8l.15.2s-4.71 3.71-5.43 7.84z"/><path d="m337.02 303.95c0-.14.06-3.47 7.06-5.6l.07.24c-6.8 2.07-6.88 5.33-6.88 5.36z"/><path d="m310.44 316.17s-.07-5.02 5.73-9.69l.16.2c-5.69 4.59-5.63 9.44-5.63 9.49h-.25z"/><path d="m304.3 322.78c0-.09-.49-8.86 8.84-13.22l.11.23c-9.17 4.28-8.7 12.89-8.7 12.97z"/><path d="m369.9 241.92c-10.03 0-15.87-3.87-19.03-7.15-3.48-3.62-4.52-7.32-4.53-7.36l.24-.07s1.04 3.69 4.48 7.26c3.12 3.24 8.9 7.06 18.84 7.06h.53c19.68-.27 34.08-14.23 34.22-14.37l.18.18c-.14.14-14.61 14.18-34.39 14.44-.18 0-.36 0-.53 0z"/><path d="m385.73 221.76c-6.94 0-12.36-1.68-12.43-1.7l.08-.24c.1.03 9.81 3.04 19.89.96 10.02-2.07 11.51-7.48 11.52-7.53l.24.06c-.01.06-1.52 5.61-11.71 7.72-2.61.54-5.19.74-7.59.74z"/><path d="m391.32 248.64c-2.41 0-4.25-.72-5.48-2.13-2.37-2.72-1.64-7.14-1.64-7.18l.25.04s-.71 4.35 1.58 6.97c1.25 1.43 3.16 2.13 5.69 2.04v.25c-.13 0-.27 0-.4 0z"/><path d="m381.18 244.13c-3.25 0-5.26-2.66-5.29-2.7l.2-.15c.13.18 3.33 4.39 8.27 1.73l.12.22c-1.2.64-2.3.89-3.29.89z"/><path d="m381.88 253.73c-7.65 0-11.56-3.11-13.52-5.8-2.24-3.08-2.46-6.3-2.46-6.34l.25-.02s.22 3.19 2.42 6.21c2.03 2.79 6.21 6.04 14.61 5.66v.25c-.44.02-.88.03-1.31.03z"/><path d="m365.09 251.85c-4.1 0-8.99-3.08-9.22-3.23l.13-.21c.06.04 6.54 4.13 10.74 2.99 1.23-.33 2.16-1.09 2.75-2.25l.22.11c-.63 1.23-1.61 2.02-2.91 2.38-.54.15-1.12.21-1.71.21z"/><path d="m372.37 254.42c-1.68 0-3.39-1.02-5.07-3.04l.19-.16c1.63 1.96 3.28 2.95 4.88 2.95h.04c1.9-.02 3.08-1.47 3.09-1.48l.2.16c-.05.06-1.27 1.55-3.29 1.58-.01 0-.03 0-.04 0z"/></g><path d="m312.19 221.3s-1.95-8.27-.81-17.24c0 0 1.07 6.51 2.84 8.02 0 0 .57-6.12 4.55-10.26 0 0-4.93 10.14-2.53 19.23l-4.05.24z" fill="#757d82" opacity=".6"/><path d="m337.15 223.68-.33-18.16.71 8.2s2.84-1.79 3.98-7.01c1.14-5.23-.44-10.19-.44-10.19s8.74 13.58 1.9 28.35l-5.82-1.18z" fill="#757d82" opacity=".6"/><path d="m318.51 227.06s6.23-2.63 10.49 2.49c0 0-3-7.65-11.64-5.53z" fill="url(#D)" opacity=".6"/><path d="m334.11 237.73s2.37-5.48 3.04-14.05l5.82 1.18s-3.04 7.88-8.86 12.87z" fill="#757d82" opacity=".6"/><path d="m349.92 239.35s5.65 11.25 13.87 15.27 16.41 3.54 16.41 3.54l-12.36 1.14s-10.97-5.47-17.92-19.95z" fill="url(#E)" opacity=".6"/><path d="m373.21 267.48c-8.02 4.04-13.39 5.24-13.39 5.24s.06.73-.22 1.99h-.01c-.28 1.24-.91 3.01-2.3 5.08l-1.36-1.67s-2.8-3.44-2.8-3.44l-7.62 2.05c1.83-.63 31.15-10.79 40.89-16.68-.88.57-5.92 3.76-13.19 7.43z" fill="#757d82" opacity=".6"/><path d="m334.43 277.27.96-4.14s3.24.05 8.23-1.56c0 0-5.42 1.56-9.19.81 0 0-4.03 6.45-4.38 11.94 0 0 3.03-5.65 4.38-7.04z" fill="#757d82" opacity=".6"/><path d="m319.78 282.13v-1.14s7-5.49 9.13-10.8l9.56-1.52s-5.81 1.04-9.34.38c0 0-4.91 8.67-9.69 11.79l.35 1.28z" fill="#757d82" opacity=".6"/><path d="m327.58 258.16 2.47-2.09s2.58 2.18 8.48 3.6c0 0-7.56-.72-10.96-1.51z" fill="#757d82" opacity=".6"/><path d="m283.21 237.35s10.93-2.76 12.49-7.8l-10.58 6.09z" fill="#757d82" opacity=".6"/><path d="m190.11 228.32s14.63 4.27 26.27-3.58c0 0 4.23-4.69 12.1-6.46s20.81-7.34 22.58-12.84c0 0 1.49 14.16-4.37 25.22s-24.81 18.24-29.48 19.95l-1.77 6.7-6.44-8.34s9.95-.53 21.21-7.56 12.01-23.89 12.01-23.89-12.48 4.51-15.84 6.29-10.97 9.05-10.97 9.05-10.3 3.06-11.94 4.07-1.99 2.27-1.99 2.27-7.15-1.13-11.37-10.89z" fill="url(#F)"/><path d="m217.02 215.15s.28-4.25 3.13-5.77c2.84-1.52 5.35 1.51 5.35 1.51l-8.47 4.26z" fill="#757d82" opacity=".6"/><path d="m215.41 232.87s.48-14.67 4.07-17.72l8.05-3.59s5.59 2.15 12.13 2.01c6.54-.13 9.95-4.2 9.95-4.2s1.16 7.81-.66 16.38-15.5 16.27-15.5 16.27l-6.76 1.17s13.36-3.19 14.71-24.54c0 0-12.26 3.09-16.71 6.15-4.45 3.07-9.28 8.06-9.28 8.06z" fill="url(#G)" opacity=".6"/><path d="m294.54 256.17 2.79-5.77s6.15.61 10.51-.28c0 0-7.65.25-10.68-.19l-2.62 6.25z" fill="#757d82" opacity=".6"/><path d="m291.39 258.49s.1-7.62 2.18-10.85l13.16.87s-10.79-.81-13.16-1.44c0 0-2.53 2.87-2.18 11.41z" fill="#757d82" opacity=".6"/><path d="m319.53 255.13 3.65-.83-4.4 7.18s.82-3.72.75-6.34z" fill="#757d82" opacity=".6"/><path d="m407.87 236.47s-.78 18.24-7.21 25.12c-3.64 3.89-6.92 2.38-9.07.35 3.62-4.92 6.45-10.56 8.27-17.14-.41.16-9.5 3.72-16.66 8.78l1.41 2.69-.19-.1-7.43-7.66s23.11-2.31 30.89-12.04z" fill="#757d82" opacity=".6"/><path d="m340.08 162.71s9.82 2.64 13.8-4.18c0 0 23.97 7.95 37.65 21.59l2.69-1.56 13.09 8.85s-30.61-7.7-53.8-24.7c0 0-4.74 2.98-13.43 0z" fill="#757d82" opacity=".6"/><path d="m353.88 158.53s.47-17.75 4.42-36.51c3.95-18.75 26.43-70.62 26.43-70.62s90.98-39.78 212.21 17.7c0 0-107.49-52.01-209.5-14.7 0 0-14.74 31.04-18.46 42.25-9.38 28.31-15.09 61.88-15.09 61.88z" fill="url(#H)" opacity=".6"/><path d="m190.11 228.32 11.37 10.89s-8.03-3.12-11.37-10.89z" fill="url(#I)" opacity=".6"/><path d="m226.12 198.26s9.35-3.54 13.39-5.75 6.25-2.08 6.25-2.08l2.97 2.82-4.42-4.85s-7.26 4.56-10.61 5.38-5.87.06-5.87.06-4.11-.94-5.65 3.26c0 0 1.12-.75 3.33-.74 2.2.01 2.58 0 2.58 0l-1.96 1.91z" fill="url(#J)" opacity=".5"/><path d="m225.2 208.14s-4.27-3.19-9.13-.79-12 9.92-17.75 10.17-6.44-4.24-6.44-4.24l1.33-3.33s-3.6-2.02-.16-6.82l5.59 5.11s11.95-.26 16.49-1.99c0 0 5.56-5.33 10.07 1.9z" fill="url(#K)" opacity=".5"/><path d="m289.84 156.13s.51 9.17-2.1 19.36l-14.3 7.23s7.68-17.38 16.4-26.6z" fill="url(#L)" opacity=".2"/><path d="m238.12 189.18s7.57-4.14 14.15-10.83c6.57-6.68 19.15-19.43 19.15-19.43s-10.24 3.96-17.92 10.09c-7.67 6.13-15.38 20.16-15.38 20.16z" fill="url(#M)" opacity=".5"/><path d="m227.8 193.25s4.73-.22 6.09-4.07 0-24.25 0-24.25-7.58 12.43-6.09 28.33z" fill="url(#N)" opacity=".5"/><path d="m241.97 218.66 5.12-2.32s-.44 13.22-16.04 25.08c0 0 9.47-6.2 10.92-22.76z" fill="url(#O)" opacity=".6"/><path d="m273.67 241.01s-5.62-17.17-18.63-20.71c0 0 6.74 3.12 18.63 20.71z" fill="url(#P)" opacity=".6"/><path d="m278.47 220.99s-10.73-12.72-23.11-9.28l5.73 1.74s13.37 4.76 17.38 7.54z" fill="url(#Q)" opacity=".6"/><path d="m267.37 262.27c-1.04-3.35-3.8-19.29-12.74-30.07-.97-1.86-1.55-3.45-1.86-4.8v-.02c11.29 10.49 14.46 33.75 14.6 34.89z" fill="url(#R)" opacity=".6"/><path d="m336.69 154.68s10.69 1.1 15.99-7.86c5.31-8.96 5.61-37.53 20.28-67.05l5.66-35.52s-18.33 83.53-41.93 110.43z" fill="url(#S)" opacity=".5"/><path d="m380.65 40.23s5.72-1.71 14.29-6.88 16.64-16.77 16.64-16.77-22.74 9.44-30.93 23.65z" fill="url(#T)" opacity=".5"/><path d="m298.68 53.06s8.72-1.89 15.54-10.04 10.61-15.87 10.61-15.87-7.52 2.41-12.65 7.56c-4.26 4.28-13.5 18.35-13.5 18.35z" fill="url(#U)" opacity=".5"/><path d="m268.58 199.24s7.49-2.9 21.26-11.82 23.25-18.16 32.7-23.58c9.45-5.41 31.03-.12 33.39 4.28s-4.49 19.08-10.35 18.81-8.44-16.52-18.89-16.65-24.09 7.22-35.33 19.71c-11.24 12.5-21.11 16.55-22.78 9.24z" fill="url(#V)" opacity=".5"/><path d="m318.38 214.01c-1.07-.18-2.03 3.16-1.38 4.95.64 1.79 1.77 1.99 2.29.41.51-1.58-.37-5.27-.9-5.36z" fill="url(#W)" opacity=".5"/><path d="m307.78 233.06s17.47-.11 23.56 7.76c0 0-12.74-1.12-23.56-7.76z" fill="#757d82" opacity=".6"/><path d="m317.63 292.04s-2.02-5.96 1.8-11.19l.35 1.28s-1 2.18-2.15 9.91z" fill="#757d82" opacity=".6"/><path d="m319.53 255.13s-8.58.99-13.55 2.79c-1.15.42-2.42 1.12-3.7 1.95-3.62 2.35-7.33 5.76-8.7 6.74.28-.42 7.17-10.4 9.71-11.58 2.59-1.2 16.24.1 16.24.1z" fill="#757d82" opacity=".6"/><path d="m295.84 238.68 10-4.09-5.51 4.34z" fill="#757d82" opacity=".6"/><path d="m241.97 218.66-.75 5.32 5.87-7.64z" fill="#44441a"/><path d="m215.41 232.87s8.89-10.34 10.08-10.86c1.19-.51 14.22-3.67 16.73-4.48 2.51-.82 6.51-2.76 6.51-2.76l-1.64 1.56-5.12 2.32s-9.62 2.51-14.95 5.17-8.24 6.59-11.6 9.05z" fill="#44441a"/><path d="m217.21 250.61s15.74-6.17 19.87-9.96c0 0-12.48 7.69-28.08 8.32l6.44 8.34z" fill="#44441a" opacity=".5"/><path d="m231.14 209.37 15.77-12.55.9-1.28s-7.86.76-16.67 13.83z" fill="#757d82" opacity=".6"/><path d="m254.91 180.57c-4.25 7.16-5.93 10.3-6.27 10.96.6-5.08 7.6-13.79 7.6-13.79l.54.09c-.73.96-1.36 1.88-1.87 2.74z" fill="#757d82" opacity=".6"/><path d="m256.05 194.48c-4.19 1.12-7.32-1.23-7.32-1.23-.15-.49-.17-1.05-.1-1.67.56-.62 4.74-5.26 8.27-6.84 3.79-1.71 10.14-2.65 10.8-2.08.67.56-8.05 7.73-11.65 11.82z" fill="#757d82" opacity=".6"/><path d="m289.84 170.28 6.69-5.9s-1.21 6.14-8.79 11.12z" fill="#757d82" opacity=".6"/><path d="m324.07 147.41-7.77 10.1s.18-5.14 0-7.63z" fill="#757d82" opacity=".6"/><path d="m326.28 146.24 11.39 7.29 8.07-14.06s-7.87.95-19.45 6.77z" fill="#757d82" opacity=".6"/><path d="m355.9 228.15s2.89-.13 7.92-1.36 6.5-3.37 6.5-3.37-14.28 1.24-14.42 4.73z" fill="url(#X)" opacity=".5"/><path d="m368.22 221.69c6.64-.31 18.44.84 26.22 4.36 0 0-24.38-15.36-36.68-2.63 0 0 5.79-1.51 10.46-1.73z" fill="#757d82" opacity=".6"/><path d="m488.41 118.71 17.3 12.57c-14.24.93-24.12 6.14-30.84 12.06l.04-.05s-6.08-3.46-9.02-.99c-2.95 2.46 0 11.7 0 11.7-3.05 4.93-4.13 8.71-4.13 8.71-7.39-.02-14.32.49-20.73 1.33 8.01-22.97-3.79-35.48-3.79-35.48l3.26.69 13.55 29.28 1.8-1.17-18.61-41.67 21.83 36.37 2.09 1.23 3.12-12.51-5.21-7.29 7.75 7.29 3.24-.95-3.24-1.62h8.53l2.96-1.88-11.49-16.38 15.4-2.21 16.42 11.99z" fill="url(#Y)" opacity=".6"/><path d="m496.36 76.17h14.12c-1.87 1.34-3.48 2.85-4.77 4.55-16.58 21.79-1.38 48.25-.09 50.42-11.78-18.2-58.8-55.42-58.8-55.42l49.29 33.3-11.69-19.84c4.47-8.22 11.94-13.01 11.94-13.01z" fill="url(#Z)" opacity=".6"/><path d="m596.91 69.09c-1.6-.23-63.57-9.3-86.43 7.08l-4.77-6.95 5.31 3.66-5.31-9.09 31.84-5.56 26.48 4.05-67.67-19.86c61.94 8.03 99.15 25.98 100.54 26.66 0 0 .01 0 .01.01z" fill="url(#aa)" opacity=".6"/><path d="m426.1 166.78c-1.76.41-3.46.85-5.1 1.3 0 0-1.24-14.04-7-11.76-5.76 2.27-7.02 16.38-7.02 16.38-9.95 3.89-15.45 7.42-15.45 7.42-15.68-14.23-36.97-21.37-37.63-21.58h-.02s5.24-25.75 5.24-25.75l2.42 25.74 14.06 4.18 5.05-18.07 1.52 15.08 7.54 10.85 1.99-51.86 4.5 36.01 8.54 12.58 8.2-27.44 5.29 8.95-3.78-13.43 6.46-2.95z" fill="url(#ab)" opacity=".6"/><path d="m355.9 180.74c-2.36-4.1 15.31 2.57 24.47 7.63 9.15 5.06 19.69 13.28 21.59 15.99 2.81 4.02 2.71 11.6 2.71 11.6s-1.87-6.37-8.01-13.98c-6.02-7.45-15.09-13.24-20.8-14.46s-15.51.93-19.95-6.79z" fill="url(#ac)" opacity=".5"/><g fill="#c36881" opacity=".4"><path d="m319.64 186.91c-.2.67-.37 1.37-.25 2.07.05.28.17.54.46.66.27.11.6.02.87-.04.65-.15 1.18-.57 1.64-1.03.4-.4.66-1.04.6-1.61-.03-.26-.19-.53-.3-.77-.09-.17-.18-.29-.33-.41-.25-.2-.5-.29-.82-.32-.34-.03-.69.12-.96.32-.7.49-1.02 1.48-1.16 2.27l.26-1.14z"/><path d="m319.8 190.89c.18-.09.35-.24.53-.1.09.07.16.16.17.28.02.22-.1.49-.33.53-.21.04-.34 0-.48-.16-.18-.2-.04-.44.11-.62z"/><path d="m346.57 183.65c-.13.19-.26.34-.38.6-.11.24-.25.55-.33.81-.18.55-.12.91-.02 1.1.08.15.2.35.41.11.11-.13.24-.28.34-.46.1-.16.18-.35.28-.52.18-.32.34-.64.48-1.01.13-.35.28-.71.29-1.01.02-.36-.15-.52-.31-.51-.25.01-.55.45-.86.95l.1-.05z"/><path d="m344.89 188.65c.09-.23.19-.46.29-.69.09.04.31-.32.34-.13.02.1-.03.26-.1.41s-.18.32-.25.4c-.14.13-.17 0-.16-.21l-.11.22z"/><path d="m320.06 99.62c.93.79 2.13 2 3.46 2.05.76.03 1.54-.72 1.6-1.47.11-1.43-.6-2.56-1.4-3.66-.44-.61-.72-1.32-1.29-1.84-.49-.45-1.19-.84-1.83-1.03-.69-.2-1.62-.33-2.3 0-.39.19-.91.86-1.03 1.3-.24.85.23 1.84.59 2.58.75 1.56 1.93 2.79 3.41 3.7l-1.22-1.65z"/><path d="m322.36 107.23c.53.11 1.27.48 1.76.13.27-.2.44-.5.37-.84-.1-.46-1.04-1.25-1.49-1.37-.39-.11-1.04 0-1.18.42-.2.6.38 1.27.78 1.61z"/><path d="m286.03 204.69c.07-.33.07-.47.34-.65s.55-.25.87-.27c.72-.05 1.5.09 1.99.67.73.86.02 2.03-.83 2.48-.33.17-.71.32-1.05.11-.4-.24-.75-.51-1-.92-.16-.27-.28-.6-.35-.91-.04-.15-.02-.45.11-.57.01 0 .03 0-.05.06z"/><path d="m305.72 189.68c.17-.12.29-.26.5-.23.14.03.26.09.36.2.16.16.08.41-.08.53-.14.11-.29.09-.41-.03-.08-.08-.1-.18-.15-.29-.05-.1-.12-.19-.13-.3l-.09.11z"/><path d="m311.53 193.47c-.05.12-.06.24-.04.36.2.08.38.02.37-.21 0-.09-.01-.17-.08-.24-.13-.15-.26-.05-.39.05l.14.05z"/><path d="m311.47 191.28c.13.18.28.52.49.63.08.04.27.03.37.06.28.07.53.02.76-.17.45-.39.61-1.2.3-1.71-.28-.45-.78-.7-1.32-.6-.6.11-.77.82-.71 1.35l.12.45z"/><path d="m427.15 51.7c-.3-.6-.5-.87-.03-1.16s1.16-.36 2.01-.34c1.92.05 4.29.46 6.49 1.64 3.28 1.75 3.03 3.82 1.33 4.49-.65.26-1.52.46-2.76 0-1.46-.53-2.85-1.11-4.13-1.92-.85-.53-1.66-1.19-2.3-1.77-.32-.29-.71-.84-.54-1.04.05 0 .09.02-.06.09z"/><path d="m422.57 49.16c.29-.19.42-.44 1.06-.33.43.07.85.22 1.29.44.69.33.83.78.55.99-.24.17-.66.12-1.18-.13-.35-.17-.54-.36-.83-.56-.27-.19-.6-.38-.81-.59l-.08.19z"/><path d="m444.25 57.39c.04.21.18.43.42.66.67.19 1.09.12.71-.33-.14-.17-.3-.33-.57-.47-.59-.31-.79-.14-1.03.01l.46.12z"/><path d="m440.87 53.26c.61.36 1.55 1.04 2.29 1.28.29.09.8.11 1.09.18.89.18 1.51.15 1.85-.18.67-.64-.07-2.14-1.69-3.16-1.43-.9-3.21-1.46-4.54-1.39-1.52.09-.92 1.39 0 2.4l.99.87z"/><path d="m363.91 205.79c.98.64 3.2 2.12 4.38 1.12.51-.43.41-1.2.23-1.8-.26-.86-.89-1.72-1.52-2.37-.91-.93-2.06-.97-3.33-.97-1.24 0-3.79-.43-3.23 1.58.21.78 1.39 1.34 2.07 1.72.96.54 1.65 1.45 2.82 1.44l-1.41-.72z"/><path d="m370.74 142.2c.69.17 1.92.33 2.65.69.71.35 1.39.96 2.01 1.44.88.69 1.87 1.33 1.91 2.53.06 1.7-1.28 2.16-2.72 1.76-1.8-.51-3-2.25-3.87-3.79-.69-1.21-1.12-2.2.47-2.89l-.46.26z"/><path d="m330.16 180.39c-.18.28-.58.75-.49 1.15.05.25.39.16.58.14.6-.07 1.21-.43 1.67-.81.38-.31.78-.62 1.04-1.04.07-.12.28-.45.16-.59-.07-.08-.32-.04-.4-.05-.14-.02-.25-.01-.39.02-.41.09-.75.23-1.12.43-.26.14-.53.27-.75.46-.37.33-.65.76-.31.3z"/><path d="m411.42 148.69c-.42.2-1.28.51-1.37.92-.06.26.48.3.77.35.92.17 2.03.05 2.92-.14.73-.16 1.49-.31 2.12-.61.18-.09.67-.33.57-.51-.05-.1-.44-.16-.55-.2-.2-.07-.36-.1-.58-.13-.66-.07-1.24-.06-1.89-.02-.45.03-.93.06-1.36.16-.74.18-1.38.48-.62.17z"/><path d="m335.26 177.28c-.17.13-.29.29-.36.48.33 0 .72-.04.93-.34.07-.1.08-.22-.07-.26-.16-.05-.28.12-.41.17z"/><path d="m388.89 121.11c-.38.17-1.31.47-1.39.85-.11.5 1.26.55 1.74.55.9-.01 2.02-.28 2.8-.56.37-.13.89-.31.93-.62.06-.54-1.03-.69-1.65-.62-.38.04-.74.11-1.11.17-.47.08-1.36.28-1.58.57z"/><path d="m394.54 119.51c.25-.19.85-.78 1.46-.6.21.06.16.4.06.53-.18.21-1.59.67-1.38.16l-.13-.09z"/><path d="m448.43 120.77c-.15.26-.23.52-.27.8.26.04.31.24.54.32.33.1.88-.05 1.17-.15.48-.17 1.15-.55 1.19-.93.04-.32-.17-.54-.63-.61-.9-.14-1.7.27-2.14.74l.13-.17z"/><path d="m418.26 148.07c-.15.26-.23.52-.27.8.26.04.31.24.54.32.33.1.88-.05 1.17-.15.48-.17 1.15-.55 1.19-.93.04-.32-.17-.54-.63-.61-.9-.14-1.7.27-2.14.74l.13-.17z"/><path d="m405.74 110.87c-.19.29-.6.66-.33.98.14.16.33.24.6.23.54 0 .95-.24 1.17-.54.18-.25.39-.46.4-.74 0-.3.08-.63-.46-.7-.75-.1-1.24.61-1.52.94l.13-.17z"/><path d="m410.34 108.91c.28.05.95.28 1.15 0 .11-.16.04-.32-.15-.42-.21-.11-.29-.08-.55-.01-.16.05-.47.11-.46.27v.17z"/><path d="m363.62 235.71c-.34.48-.82 1.03-.81 1.67 0 .31.13.7.39.83.7.36 1.7-.52 2.1-1.05s.59-1.47.27-2.08c-.59-1.13-1.77.21-2.21.75l.26-.13z"/><path d="m196.61 225.8c-.34.48-.82 1.03-.81 1.67 0 .31.13.7.39.83.7.36 1.7-.52 2.1-1.05s.59-1.47.27-2.08c-.59-1.13-1.77.21-2.21.75l.26-.13z"/><path d="m367.35 210.77c-.92-.19-2.08-.56-2.65-.06-.28.24-.46.75-.21 1.3.65 1.45 2.86 2.44 3.88 2.69 1.03.25 2.16-.16 2.26-1.17.2-1.86-2.67-2.8-3.77-3.1z"/><path d="m324.98 155.36c-.92-.19-2.08-.56-2.65-.06-.28.24-.46.75-.21 1.3.65 1.45 2.86 2.44 3.88 2.69 1.03.25 2.16-.16 2.26-1.17.2-1.86-2.67-2.8-3.77-3.1z"/><path d="m407.02 115.97c.2-.2.4-.41.59-.62.26.03.44 0 .6.11.18.13.14.26.01.4-.29.3-.79.22-1.2.02z"/><path d="m393.47 122.7c.03.25.16.47.4.65.44-.15.9-.03 1.31-.29.24-.16.4-.34.17-.54-.46-.41-1.49-.07-1.88.18z"/><path d="m395.95 236.91c.38.19 1.01.66 1.41.27.17-.15.23-.42.14-.63-.23-.53-1.14-.79-1.28-.04l-.26.39z"/><path d="m428.53 114.97c-.04.23-.32.77 0 .95.16.09.38.11.58.08.13-.02.34-.09.47-.12.12-.03.39-.09.49-.15.38-.2-.1-.36-.36-.48-.41-.18-.68-.28-1.17-.29z"/></g><path d="m407.44 342.93s39.16 10.19 54.57 12.43 28.04-1.8 28.04-1.8-25.77 12.21-82.61-10.63z" fill="#44441a"/><path d="m432.74 327.22 2.17-1.83s-19.26 1.26-34.57 6.1c0 0 16.81-4.26 32.4-4.27z" fill="#44441a"/><path d="m230.13 222.46s-10.27 24.62-58.96 37.22-50.97 14.31-62.34 9-13.45 1.33-18.19 4.17-29.75 7.42-36.19 22.85 6.44 23.57 13.64 21.87 16.29-3.6 24.25 7.2 17.43.87 21.79 1.48-2.83 8.99-.19 10.65 10.04-2.23 10.8-6.13c.76-3.91.38-19.04 9.66-24.17s3.6-11.76 17.05-24.45c13.45-12.7 70.71-40.72 88.58-62.81l-9.91 3.14z" fill="url(#ad)"/><path d="m90.77 350.28s-.76-3.66 3.41-3.79z" fill="#f6851f"/><path d="m103.91 245.28s-1.37-11.98-13.19-6.99z" fill="#f6851f"/><path d="m157.72 343.97s-1.89-4.4 3.41-5.17z" fill="#f6851f"/><path d="m45.55 329.94s-18.95-7.43-18.95 7.34c0 0 8.72-5.95 18.95-7.34z" fill="#f6851f"/><path d="m211.5 210.33s3.34-3.79 5.52-5.15 4.24-.56 4.24-.56-2.2 1.21-4.88 2.3-4.88 3.41-4.88 3.41z" fill="url(#ae)"/><path d="m191.88 213.27s3.49-3.55 7.03-4.68l5.78-.67s-6.43 1.15-12.81 5.35z" fill="url(#af)" opacity=".5"/><path d="m226.12 198.26 18.19-9.86s-8.4 6.83-18.19 9.86z" fill="url(#ag)"/><path d="m233.35 238.32s-1.61-5.49-1.28-5.78 4.13 1.3 4.13 1.3-.29 3.05-2.85 4.48z" fill="#fac7d2"/><path d="m237.08 232.22s-1.22-4.14-.46-5.18 2.86-.75 2.86-.75.53 3.29-2.4 5.93z" fill="#fac7d2"/><path d="m223.5 244.43s-.47-2.14.71-3.01 2.75 1.12 2.75 1.12-2.37 1.71-3.46 1.89z" fill="#fac7d2"/><path d="m222.52 244.43s-2.76-3.66-2.37 1.14c0 0 1.4.24 2.37-1.14z" fill="#fac7d2"/><path d="m219.64 245.77s-.77-1.77-1.46-1.91-.91 2.97-.91 2.97 1.61.18 2.37-1.07z" fill="#fac7d2"/><path d="m216.42 246.83s-.42-2.16-1.01-2.19c-.6-.03-.85 2.53-.85 2.53s.96.24 1.86-.34z" fill="#fac7d2"/></svg>